<mxfile host="Electron" modified="2024-03-24T09:20:34.361Z" agent="Mozilla/5.0 (Windows NT 10.0; Win64; x64) AppleWebKit/537.36 (KHTML, like Gecko) draw.io/24.1.0 Chrome/120.0.6099.109 Electron/28.1.0 Safari/537.36" etag="jT4aK9ECWxfWDuION51K" version="24.1.0" type="device">
  <diagram name="Page-1" id="j-MaNXyUL6Ljd3Kbs1A1">
    <mxGraphModel dx="1337" dy="744" grid="1" gridSize="10" guides="1" tooltips="1" connect="1" arrows="1" fold="1" page="1" pageScale="1" pageWidth="850" pageHeight="1100" math="0" shadow="0">
      <root>
        <mxCell id="0" />
        <mxCell id="1" parent="0" />
        <mxCell id="qoeNgem16C5iIp4ydC2M-30" value="" style="rounded=0;whiteSpace=wrap;html=1;fillStyle=auto;fillColor=#CCFFCC;" vertex="1" parent="1">
          <mxGeometry x="210" y="738.75" width="580" height="160" as="geometry" />
        </mxCell>
        <mxCell id="qoeNgem16C5iIp4ydC2M-4" value="" style="group" vertex="1" connectable="0" parent="1">
          <mxGeometry x="120" y="698.75" width="60" height="200" as="geometry" />
        </mxCell>
        <mxCell id="qoeNgem16C5iIp4ydC2M-2" value="" style="endArrow=none;html=1;rounded=0;strokeWidth=2;fillColor=#0050ef;strokeColor=#001DBC;" edge="1" parent="qoeNgem16C5iIp4ydC2M-4">
          <mxGeometry width="50" height="50" relative="1" as="geometry">
            <mxPoint x="30" y="200" as="sourcePoint" />
            <mxPoint x="30" y="40" as="targetPoint" />
          </mxGeometry>
        </mxCell>
        <mxCell id="qoeNgem16C5iIp4ydC2M-3" value="Lvl" style="text;html=1;align=center;verticalAlign=middle;whiteSpace=wrap;rounded=0;" vertex="1" parent="qoeNgem16C5iIp4ydC2M-4">
          <mxGeometry width="60" height="30" as="geometry" />
        </mxCell>
        <mxCell id="G4bdY_BmcVsglZIs1OtU-32" value="" style="rounded=0;whiteSpace=wrap;html=1;fillColor=none;dashed=1;" parent="1" vertex="1">
          <mxGeometry x="380" y="285" width="410" height="335" as="geometry" />
        </mxCell>
        <mxCell id="k13MN9PNjsYVJc43l-up-2" value="" style="rounded=0;whiteSpace=wrap;html=1;fillColor=#d5e8d4;strokeColor=#82b366;" parent="1" vertex="1">
          <mxGeometry x="100" y="420" width="120" height="110" as="geometry" />
        </mxCell>
        <mxCell id="k13MN9PNjsYVJc43l-up-3" value="" style="rounded=0;whiteSpace=wrap;html=1;fillColor=#fad9d5;strokeColor=#ae4132;" parent="1" vertex="1">
          <mxGeometry x="100" y="530" width="120" height="110" as="geometry" />
        </mxCell>
        <mxCell id="G4bdY_BmcVsglZIs1OtU-1" value="" style="rounded=0;whiteSpace=wrap;html=1;fillColor=#d5e8d4;strokeColor=#82b366;" parent="1" vertex="1">
          <mxGeometry x="100" y="310" width="120" height="110" as="geometry" />
        </mxCell>
        <mxCell id="G4bdY_BmcVsglZIs1OtU-2" value="" style="rounded=0;whiteSpace=wrap;html=1;fillColor=#d5e8d4;strokeColor=#82b366;" parent="1" vertex="1">
          <mxGeometry x="100" y="200" width="120" height="110" as="geometry" />
        </mxCell>
        <mxCell id="G4bdY_BmcVsglZIs1OtU-3" value="R/R" style="text;html=1;align=center;verticalAlign=middle;whiteSpace=wrap;rounded=0;fontSize=17;" parent="1" vertex="1">
          <mxGeometry x="240" y="410" width="60" height="30" as="geometry" />
        </mxCell>
        <mxCell id="G4bdY_BmcVsglZIs1OtU-4" value="" style="rounded=0;whiteSpace=wrap;html=1;fillColor=#fad9d5;strokeColor=#ae4132;" parent="1" vertex="1">
          <mxGeometry x="510" y="500" width="120" height="90" as="geometry" />
        </mxCell>
        <mxCell id="G4bdY_BmcVsglZIs1OtU-6" value="" style="rounded=0;whiteSpace=wrap;html=1;fillColor=#fad9d5;strokeColor=#ae4132;" parent="1" vertex="1">
          <mxGeometry x="510" y="470" width="120" height="30" as="geometry" />
        </mxCell>
        <mxCell id="G4bdY_BmcVsglZIs1OtU-7" value="" style="rounded=0;whiteSpace=wrap;html=1;fillColor=#fad9d5;strokeColor=#ae4132;" parent="1" vertex="1">
          <mxGeometry x="510" y="440" width="120" height="30" as="geometry" />
        </mxCell>
        <mxCell id="G4bdY_BmcVsglZIs1OtU-8" value="" style="rounded=0;whiteSpace=wrap;html=1;fillColor=#fad9d5;strokeColor=#ae4132;" parent="1" vertex="1">
          <mxGeometry x="510" y="370" width="120" height="70" as="geometry" />
        </mxCell>
        <mxCell id="G4bdY_BmcVsglZIs1OtU-9" value="" style="endArrow=classic;html=1;rounded=0;entryX=0;entryY=1;entryDx=0;entryDy=0;" parent="1" target="G4bdY_BmcVsglZIs1OtU-6" edge="1">
          <mxGeometry width="50" height="50" relative="1" as="geometry">
            <mxPoint x="410" y="500" as="sourcePoint" />
            <mxPoint x="480" y="350" as="targetPoint" />
          </mxGeometry>
        </mxCell>
        <mxCell id="G4bdY_BmcVsglZIs1OtU-10" value="Level" style="edgeLabel;html=1;align=center;verticalAlign=middle;resizable=0;points=[];" parent="G4bdY_BmcVsglZIs1OtU-9" vertex="1" connectable="0">
          <mxGeometry x="-0.4" y="3" relative="1" as="geometry">
            <mxPoint x="15" as="offset" />
          </mxGeometry>
        </mxCell>
        <mxCell id="G4bdY_BmcVsglZIs1OtU-12" value="" style="endArrow=classic;html=1;rounded=0;entryX=0;entryY=1;entryDx=0;entryDy=0;" parent="1" edge="1">
          <mxGeometry width="50" height="50" relative="1" as="geometry">
            <mxPoint x="410" y="590" as="sourcePoint" />
            <mxPoint x="510" y="590" as="targetPoint" />
          </mxGeometry>
        </mxCell>
        <mxCell id="G4bdY_BmcVsglZIs1OtU-13" value="Stop-Loss" style="edgeLabel;html=1;align=center;verticalAlign=middle;resizable=0;points=[];" parent="G4bdY_BmcVsglZIs1OtU-12" vertex="1" connectable="0">
          <mxGeometry x="-0.4" y="3" relative="1" as="geometry">
            <mxPoint x="15" y="-7" as="offset" />
          </mxGeometry>
        </mxCell>
        <mxCell id="G4bdY_BmcVsglZIs1OtU-19" value="" style="endArrow=classic;html=1;rounded=0;entryX=0;entryY=1;entryDx=0;entryDy=0;" parent="1" edge="1">
          <mxGeometry width="50" height="50" relative="1" as="geometry">
            <mxPoint x="410" y="470" as="sourcePoint" />
            <mxPoint x="510" y="470" as="targetPoint" />
          </mxGeometry>
        </mxCell>
        <mxCell id="G4bdY_BmcVsglZIs1OtU-20" value="Price" style="edgeLabel;html=1;align=center;verticalAlign=middle;resizable=0;points=[];" parent="G4bdY_BmcVsglZIs1OtU-19" vertex="1" connectable="0">
          <mxGeometry x="-0.4" y="3" relative="1" as="geometry">
            <mxPoint x="15" y="3" as="offset" />
          </mxGeometry>
        </mxCell>
        <mxCell id="G4bdY_BmcVsglZIs1OtU-21" value="" style="endArrow=classic;html=1;rounded=0;entryX=0;entryY=1;entryDx=0;entryDy=0;" parent="1" edge="1">
          <mxGeometry width="50" height="50" relative="1" as="geometry">
            <mxPoint x="410" y="440" as="sourcePoint" />
            <mxPoint x="510" y="440" as="targetPoint" />
          </mxGeometry>
        </mxCell>
        <mxCell id="G4bdY_BmcVsglZIs1OtU-22" value="Order Limit" style="edgeLabel;html=1;align=center;verticalAlign=middle;resizable=0;points=[];" parent="G4bdY_BmcVsglZIs1OtU-21" vertex="1" connectable="0">
          <mxGeometry x="-0.4" y="3" relative="1" as="geometry">
            <mxPoint x="15" y="3" as="offset" />
          </mxGeometry>
        </mxCell>
        <mxCell id="G4bdY_BmcVsglZIs1OtU-24" value="" style="endArrow=classic;html=1;rounded=0;entryX=0;entryY=1;entryDx=0;entryDy=0;" parent="1" edge="1">
          <mxGeometry width="50" height="50" relative="1" as="geometry">
            <mxPoint x="410" y="370" as="sourcePoint" />
            <mxPoint x="510" y="370" as="targetPoint" />
          </mxGeometry>
        </mxCell>
        <mxCell id="G4bdY_BmcVsglZIs1OtU-25" value="Break-Even" style="edgeLabel;html=1;align=center;verticalAlign=middle;resizable=0;points=[];" parent="G4bdY_BmcVsglZIs1OtU-24" vertex="1" connectable="0">
          <mxGeometry x="-0.4" y="3" relative="1" as="geometry">
            <mxPoint x="15" y="3" as="offset" />
          </mxGeometry>
        </mxCell>
        <mxCell id="G4bdY_BmcVsglZIs1OtU-26" value="" style="rounded=0;whiteSpace=wrap;html=1;fillColor=#f8cecc;gradientColor=#ea6b66;strokeColor=#b85450;" parent="1" vertex="1">
          <mxGeometry x="510" y="440" width="120" height="10" as="geometry" />
        </mxCell>
        <mxCell id="G4bdY_BmcVsglZIs1OtU-28" value="" style="endArrow=classic;html=1;rounded=0;" parent="1" edge="1">
          <mxGeometry width="50" height="50" relative="1" as="geometry">
            <mxPoint x="770" y="450" as="sourcePoint" />
            <mxPoint x="630" y="450" as="targetPoint" />
          </mxGeometry>
        </mxCell>
        <mxCell id="G4bdY_BmcVsglZIs1OtU-29" value="Execution Price" style="edgeLabel;html=1;align=center;verticalAlign=middle;resizable=0;points=[];" parent="G4bdY_BmcVsglZIs1OtU-28" vertex="1" connectable="0">
          <mxGeometry x="-0.28" y="3" relative="1" as="geometry">
            <mxPoint x="-10" y="-3" as="offset" />
          </mxGeometry>
        </mxCell>
        <mxCell id="G4bdY_BmcVsglZIs1OtU-30" value="" style="shape=flexArrow;endArrow=classic;html=1;rounded=0;fillColor=#e51400;strokeColor=#B20000;" parent="1" edge="1">
          <mxGeometry width="50" height="50" relative="1" as="geometry">
            <mxPoint x="700" y="340" as="sourcePoint" />
            <mxPoint x="700" y="440" as="targetPoint" />
          </mxGeometry>
        </mxCell>
        <mxCell id="G4bdY_BmcVsglZIs1OtU-34" value="" style="endArrow=classic;html=1;rounded=0;exitX=0;exitY=0.5;exitDx=0;exitDy=0;entryX=0.992;entryY=0.568;entryDx=0;entryDy=0;entryPerimeter=0;" parent="1" source="G4bdY_BmcVsglZIs1OtU-32" target="k13MN9PNjsYVJc43l-up-3" edge="1">
          <mxGeometry width="50" height="50" relative="1" as="geometry">
            <mxPoint x="300" y="570" as="sourcePoint" />
            <mxPoint x="350" y="520" as="targetPoint" />
          </mxGeometry>
        </mxCell>
        <mxCell id="G4bdY_BmcVsglZIs1OtU-35" value="&lt;h1 style=&quot;margin-top: 0px; font-size: 15px;&quot;&gt;&lt;ol&gt;&lt;li&gt;&lt;span style=&quot;font-weight: normal;&quot;&gt;We calculate order limit based of reference point (level or price).&lt;/span&gt;&lt;/li&gt;&lt;li&gt;&lt;span style=&quot;font-weight: normal;&quot;&gt;Order limit becomes worst execution price.&lt;/span&gt;&lt;/li&gt;&lt;li&gt;&lt;span style=&quot;font-weight: normal;&quot;&gt;We calculate BE based on execution price.&lt;/span&gt;&lt;/li&gt;&lt;li&gt;&lt;span style=&quot;font-weight: normal;&quot;&gt;We divide risk/reward by BE&lt;/span&gt;&lt;/li&gt;&lt;/ol&gt;&lt;/h1&gt;" style="text;html=1;whiteSpace=wrap;overflow=hidden;rounded=0;" parent="1" vertex="1">
          <mxGeometry x="270" y="50" width="490" height="110" as="geometry" />
        </mxCell>
        <mxCell id="qoeNgem16C5iIp4ydC2M-5" value="" style="group" vertex="1" connectable="0" parent="1">
          <mxGeometry x="140" y="698.75" width="170" height="200" as="geometry" />
        </mxCell>
        <mxCell id="qoeNgem16C5iIp4ydC2M-6" value="" style="endArrow=none;html=1;rounded=0;strokeWidth=2;" edge="1" parent="qoeNgem16C5iIp4ydC2M-5">
          <mxGeometry width="50" height="50" relative="1" as="geometry">
            <mxPoint x="30" y="200" as="sourcePoint" />
            <mxPoint x="30" y="40" as="targetPoint" />
          </mxGeometry>
        </mxCell>
        <mxCell id="qoeNgem16C5iIp4ydC2M-7" value="Stp" style="text;html=1;align=center;verticalAlign=middle;whiteSpace=wrap;rounded=0;" vertex="1" parent="qoeNgem16C5iIp4ydC2M-5">
          <mxGeometry width="60" height="30" as="geometry" />
        </mxCell>
        <mxCell id="qoeNgem16C5iIp4ydC2M-35" value="" style="rounded=0;whiteSpace=wrap;html=1;fillStyle=cross-hatch;fillColor=#FF9999;" vertex="1" parent="qoeNgem16C5iIp4ydC2M-5">
          <mxGeometry x="-40" y="40" width="210" height="160" as="geometry" />
        </mxCell>
        <mxCell id="qoeNgem16C5iIp4ydC2M-11" value="" style="group" vertex="1" connectable="0" parent="1">
          <mxGeometry x="240" y="698.75" width="60" height="200" as="geometry" />
        </mxCell>
        <mxCell id="qoeNgem16C5iIp4ydC2M-12" value="" style="endArrow=none;html=1;rounded=0;strokeWidth=2;" edge="1" parent="qoeNgem16C5iIp4ydC2M-11">
          <mxGeometry width="50" height="50" relative="1" as="geometry">
            <mxPoint x="30" y="200" as="sourcePoint" />
            <mxPoint x="30" y="40" as="targetPoint" />
          </mxGeometry>
        </mxCell>
        <mxCell id="qoeNgem16C5iIp4ydC2M-13" value="BE" style="text;html=1;align=center;verticalAlign=middle;whiteSpace=wrap;rounded=0;" vertex="1" parent="qoeNgem16C5iIp4ydC2M-11">
          <mxGeometry width="60" height="30" as="geometry" />
        </mxCell>
        <mxCell id="qoeNgem16C5iIp4ydC2M-14" value="" style="group" vertex="1" connectable="0" parent="1">
          <mxGeometry x="100" y="698.75" width="60" height="200" as="geometry" />
        </mxCell>
        <mxCell id="qoeNgem16C5iIp4ydC2M-15" value="" style="endArrow=none;html=1;rounded=0;strokeWidth=2;" edge="1" parent="qoeNgem16C5iIp4ydC2M-14">
          <mxGeometry width="50" height="50" relative="1" as="geometry">
            <mxPoint x="30" y="200" as="sourcePoint" />
            <mxPoint x="30" y="40" as="targetPoint" />
          </mxGeometry>
        </mxCell>
        <mxCell id="qoeNgem16C5iIp4ydC2M-16" value="SL" style="text;html=1;align=center;verticalAlign=middle;whiteSpace=wrap;rounded=0;" vertex="1" parent="qoeNgem16C5iIp4ydC2M-14">
          <mxGeometry width="60" height="30" as="geometry" />
        </mxCell>
        <mxCell id="qoeNgem16C5iIp4ydC2M-9" value="" style="endArrow=none;html=1;rounded=0;strokeWidth=3;fillColor=#e51400;strokeColor=#B20000;" edge="1" parent="1">
          <mxGeometry width="50" height="50" relative="1" as="geometry">
            <mxPoint x="210" y="898.75" as="sourcePoint" />
            <mxPoint x="210" y="738.75" as="targetPoint" />
          </mxGeometry>
        </mxCell>
        <mxCell id="qoeNgem16C5iIp4ydC2M-10" value="Lmt" style="text;html=1;align=center;verticalAlign=middle;whiteSpace=wrap;rounded=0;" vertex="1" parent="1">
          <mxGeometry x="180" y="698.75" width="60" height="30" as="geometry" />
        </mxCell>
        <mxCell id="qoeNgem16C5iIp4ydC2M-23" value="" style="endArrow=none;html=1;rounded=0;strokeWidth=3;fillColor=#e51400;strokeColor=#B20000;" edge="1" parent="1">
          <mxGeometry width="50" height="50" relative="1" as="geometry">
            <mxPoint x="100" y="898.75" as="sourcePoint" />
            <mxPoint x="100" y="738.75" as="targetPoint" />
          </mxGeometry>
        </mxCell>
        <mxCell id="qoeNgem16C5iIp4ydC2M-24" value="SL(e)" style="text;html=1;align=center;verticalAlign=middle;whiteSpace=wrap;rounded=0;" vertex="1" parent="1">
          <mxGeometry x="70" y="698.75" width="60" height="30" as="geometry" />
        </mxCell>
        <mxCell id="qoeNgem16C5iIp4ydC2M-25" value="Risk" style="text;html=1;align=center;verticalAlign=middle;whiteSpace=wrap;rounded=0;" vertex="1" parent="1">
          <mxGeometry x="175" y="918.75" width="60" height="30" as="geometry" />
        </mxCell>
        <mxCell id="qoeNgem16C5iIp4ydC2M-27" value="" style="group" vertex="1" connectable="0" parent="1">
          <mxGeometry x="760" y="698.75" width="60" height="200" as="geometry" />
        </mxCell>
        <mxCell id="qoeNgem16C5iIp4ydC2M-28" value="" style="endArrow=none;html=1;rounded=0;strokeWidth=2;" edge="1" parent="qoeNgem16C5iIp4ydC2M-27">
          <mxGeometry width="50" height="50" relative="1" as="geometry">
            <mxPoint x="30" y="200" as="sourcePoint" />
            <mxPoint x="30" y="40" as="targetPoint" />
          </mxGeometry>
        </mxCell>
        <mxCell id="qoeNgem16C5iIp4ydC2M-29" value="TP" style="text;html=1;align=center;verticalAlign=middle;whiteSpace=wrap;rounded=0;" vertex="1" parent="qoeNgem16C5iIp4ydC2M-27">
          <mxGeometry width="60" height="30" as="geometry" />
        </mxCell>
        <mxCell id="qoeNgem16C5iIp4ydC2M-32" value="" style="group" vertex="1" connectable="0" parent="1">
          <mxGeometry x="280" y="698.75" width="60" height="200" as="geometry" />
        </mxCell>
        <mxCell id="qoeNgem16C5iIp4ydC2M-33" value="" style="endArrow=none;html=1;rounded=0;strokeWidth=2;" edge="1" parent="qoeNgem16C5iIp4ydC2M-32">
          <mxGeometry width="50" height="50" relative="1" as="geometry">
            <mxPoint x="30" y="200" as="sourcePoint" />
            <mxPoint x="30" y="40" as="targetPoint" />
          </mxGeometry>
        </mxCell>
        <mxCell id="qoeNgem16C5iIp4ydC2M-34" value="BE(tx)" style="text;html=1;align=center;verticalAlign=middle;whiteSpace=wrap;rounded=0;" vertex="1" parent="qoeNgem16C5iIp4ydC2M-32">
          <mxGeometry width="60" height="30" as="geometry" />
        </mxCell>
        <mxCell id="qoeNgem16C5iIp4ydC2M-36" value="" style="shape=curlyBracket;whiteSpace=wrap;html=1;rounded=1;labelPosition=left;verticalLabelPosition=middle;align=right;verticalAlign=middle;rotation=-90;" vertex="1" parent="1">
          <mxGeometry x="195" y="803.75" width="20" height="210" as="geometry" />
        </mxCell>
        <mxCell id="qoeNgem16C5iIp4ydC2M-37" value="" style="shape=curlyBracket;whiteSpace=wrap;html=1;rounded=1;labelPosition=left;verticalLabelPosition=middle;align=right;verticalAlign=middle;rotation=-90;" vertex="1" parent="1">
          <mxGeometry x="541.25" y="670" width="20" height="477.5" as="geometry" />
        </mxCell>
        <mxCell id="qoeNgem16C5iIp4ydC2M-38" value="Reward" style="text;html=1;align=center;verticalAlign=middle;whiteSpace=wrap;rounded=0;" vertex="1" parent="1">
          <mxGeometry x="521.25" y="918.75" width="60" height="30" as="geometry" />
        </mxCell>
        <mxCell id="qoeNgem16C5iIp4ydC2M-40" value="" style="shape=curlyBracket;whiteSpace=wrap;html=1;rounded=1;labelPosition=left;verticalLabelPosition=middle;align=right;verticalAlign=middle;rotation=-90;" vertex="1" parent="1">
          <mxGeometry x="470.79" y="633.28" width="55" height="580.93" as="geometry" />
        </mxCell>
        <mxCell id="qoeNgem16C5iIp4ydC2M-41" value="Gross inc." style="text;html=1;align=center;verticalAlign=middle;whiteSpace=wrap;rounded=0;" vertex="1" parent="1">
          <mxGeometry x="470" y="948.75" width="60" height="30" as="geometry" />
        </mxCell>
        <mxCell id="qoeNgem16C5iIp4ydC2M-42" value="Gross Inc. = Goal - Lmt" style="text;html=1;align=center;verticalAlign=middle;whiteSpace=wrap;rounded=0;" vertex="1" parent="1">
          <mxGeometry x="100" y="983.75" width="260" height="30" as="geometry" />
        </mxCell>
        <mxCell id="qoeNgem16C5iIp4ydC2M-43" value="Be(tx) = Gross Inc - Gross Inc * 0.1" style="text;html=1;align=center;verticalAlign=middle;whiteSpace=wrap;rounded=0;" vertex="1" parent="1">
          <mxGeometry x="130" y="1013.75" width="260" height="30" as="geometry" />
        </mxCell>
      </root>
    </mxGraphModel>
  </diagram>
</mxfile>
